<svg xmlns="http://www.w3.org/2000/svg" xmlns:xlink="http://www.w3.org/1999/xlink" width="500" zoomAndPan="magnify" viewBox="0 0 375 374.999991" height="500" preserveAspectRatio="xMidYMid meet" version="1.0"><defs><clipPath id="6de4e17c19"><path d="M 37.5 37.5 L 143 37.5 L 143 143 L 37.5 143 Z M 37.5 37.5 " clip-rule="nonzero"/></clipPath><clipPath id="91d3b4a1a5"><path d="M 232 37.5 L 337.5 37.5 L 337.5 143 L 232 143 Z M 232 37.5 " clip-rule="nonzero"/></clipPath><clipPath id="3f02bdb12f"><path d="M 232 232 L 337.5 232 L 337.5 337.5 L 232 337.5 Z M 232 232 " clip-rule="nonzero"/></clipPath><clipPath id="7e1062ff7f"><path d="M 177 37.5 L 275 37.5 L 275 198 L 177 198 Z M 177 37.5 " clip-rule="nonzero"/></clipPath><clipPath id="566d92c0cf"><path d="M 295 176 L 337.5 176 L 337.5 198 L 295 198 Z M 295 176 " clip-rule="nonzero"/></clipPath><clipPath id="61085cfad0"><path d="M 177 316 L 198 316 L 198 337.5 L 177 337.5 Z M 177 316 " clip-rule="nonzero"/></clipPath><clipPath id="c8c84951ba"><path d="M 37.5 162 L 143 162 L 143 198 L 37.5 198 Z M 37.5 162 " clip-rule="nonzero"/></clipPath><clipPath id="c2adda3b7d"><path d="M 37.5 260 L 157 260 L 157 337.5 L 37.5 337.5 Z M 37.5 260 " clip-rule="nonzero"/></clipPath><clipPath id="6c2a4570c4"><path d="M 37.5 218 L 94 218 L 94 296 L 37.5 296 Z M 37.5 218 " clip-rule="nonzero"/></clipPath></defs><path fill="#252627" d="M 374.855469 91.882812 L 360.820312 91.882812 L 360.820312 23.152344 C 360.820312 22.554688 360.757812 21.964844 360.644531 21.378906 C 360.527344 20.792969 360.351562 20.222656 360.125 19.671875 C 359.894531 19.121094 359.613281 18.597656 359.28125 18.101562 C 358.949219 17.605469 358.574219 17.144531 358.152344 16.722656 C 357.730469 16.300781 357.269531 15.921875 356.773438 15.589844 C 356.277344 15.257812 355.753906 14.980469 355.203125 14.75 C 354.648438 14.519531 354.082031 14.347656 353.496094 14.230469 C 352.910156 14.113281 352.320312 14.054688 351.722656 14.054688 L 282.988281 14.054688 L 282.988281 0.015625 L 351.71875 0.015625 C 352.476562 0.0195312 353.234375 0.0546875 353.988281 0.132812 C 354.742188 0.207031 355.488281 0.316406 356.230469 0.464844 C 356.976562 0.613281 357.707031 0.800781 358.433594 1.019531 C 359.15625 1.238281 359.871094 1.496094 360.570312 1.785156 C 361.269531 2.074219 361.953125 2.398438 362.621094 2.757812 C 363.289062 3.113281 363.9375 3.503906 364.566406 3.925781 C 365.195312 4.34375 365.804688 4.796875 366.390625 5.277344 C 366.976562 5.757812 367.535156 6.265625 368.070312 6.800781 C 368.605469 7.335938 369.117188 7.898438 369.597656 8.484375 C 370.078125 9.066406 370.527344 9.675781 370.949219 10.304688 C 371.371094 10.933594 371.757812 11.582031 372.117188 12.25 C 372.472656 12.917969 372.796875 13.601562 373.085938 14.304688 C 373.378906 15.003906 373.632812 15.714844 373.851562 16.441406 C 374.074219 17.164062 374.257812 17.898438 374.40625 18.640625 C 374.554688 19.382812 374.667969 20.132812 374.742188 20.886719 C 374.816406 21.640625 374.855469 22.394531 374.855469 23.152344 Z M 374.855469 91.882812 " fill-opacity="1" fill-rule="nonzero"/><path fill="#252627" d="M 14.179688 91.882812 L 0.144531 91.882812 L 0.144531 23.152344 C 0.144531 22.394531 0.183594 21.640625 0.257812 20.886719 C 0.332031 20.132812 0.445312 19.382812 0.59375 18.640625 C 0.742188 17.898438 0.925781 17.164062 1.144531 16.441406 C 1.367188 15.714844 1.621094 15.003906 1.910156 14.304688 C 2.203125 13.601562 2.527344 12.917969 2.882812 12.25 C 3.242188 11.582031 3.628906 10.933594 4.050781 10.304688 C 4.472656 9.675781 4.921875 9.066406 5.402344 8.484375 C 5.882812 7.898438 6.390625 7.335938 6.925781 6.800781 C 7.464844 6.265625 8.023438 5.757812 8.609375 5.277344 C 9.195312 4.796875 9.800781 4.34375 10.433594 3.925781 C 11.0625 3.503906 11.710938 3.113281 12.378906 2.757812 C 13.046875 2.398438 13.730469 2.074219 14.429688 1.785156 C 15.128906 1.496094 15.839844 1.238281 16.566406 1.019531 C 17.289062 0.800781 18.023438 0.613281 18.765625 0.464844 C 19.511719 0.316406 20.257812 0.207031 21.011719 0.132812 C 21.765625 0.0546875 22.519531 0.0195312 23.277344 0.015625 L 92.011719 0.015625 L 92.011719 14.054688 L 23.277344 14.054688 C 22.679688 14.054688 22.089844 14.113281 21.503906 14.230469 C 20.917969 14.347656 20.351562 14.519531 19.796875 14.75 C 19.246094 14.980469 18.722656 15.257812 18.226562 15.589844 C 17.730469 15.921875 17.269531 16.300781 16.847656 16.722656 C 16.425781 17.144531 16.050781 17.605469 15.71875 18.101562 C 15.386719 18.597656 15.105469 19.121094 14.875 19.671875 C 14.648438 20.222656 14.472656 20.792969 14.355469 21.378906 C 14.242188 21.964844 14.179688 22.554688 14.179688 23.152344 Z M 14.179688 91.882812 " fill-opacity="1" fill-rule="nonzero"/><path fill="#252627" d="M 351.722656 374.730469 L 282.988281 374.730469 L 282.988281 360.691406 L 351.71875 360.691406 C 352.316406 360.691406 352.910156 360.632812 353.496094 360.515625 C 354.078125 360.398438 354.648438 360.226562 355.199219 359.996094 C 355.75 359.769531 356.277344 359.488281 356.773438 359.15625 C 357.269531 358.824219 357.726562 358.449219 358.148438 358.023438 C 358.574219 357.601562 358.949219 357.144531 359.28125 356.648438 C 359.613281 356.152344 359.894531 355.625 360.121094 355.074219 C 360.351562 354.523438 360.523438 353.953125 360.640625 353.367188 C 360.757812 352.785156 360.816406 352.191406 360.816406 351.59375 L 360.816406 282.863281 L 374.855469 282.863281 L 374.855469 351.59375 C 374.855469 352.351562 374.816406 353.109375 374.742188 353.863281 C 374.667969 354.617188 374.554688 355.363281 374.40625 356.105469 C 374.257812 356.847656 374.074219 357.582031 373.851562 358.308594 C 373.632812 359.03125 373.378906 359.746094 373.085938 360.445312 C 372.796875 361.144531 372.472656 361.828125 372.117188 362.496094 C 371.757812 363.164062 371.371094 363.8125 370.949219 364.441406 C 370.527344 365.070312 370.078125 365.679688 369.597656 366.265625 C 369.117188 366.851562 368.609375 367.410156 368.070312 367.945312 C 367.535156 368.480469 366.976562 368.988281 366.390625 369.46875 C 365.804688 369.949219 365.199219 370.402344 364.566406 370.824219 C 363.9375 371.242188 363.289062 371.632812 362.621094 371.992188 C 361.953125 372.347656 361.269531 372.671875 360.570312 372.960938 C 359.871094 373.253906 359.160156 373.507812 358.433594 373.726562 C 357.710938 373.949219 356.976562 374.132812 356.234375 374.28125 C 355.488281 374.429688 354.742188 374.542969 353.988281 374.617188 C 353.234375 374.691406 352.480469 374.730469 351.722656 374.730469 Z M 351.722656 374.730469 " fill-opacity="1" fill-rule="nonzero"/><path fill="#252627" d="M 92.011719 374.730469 L 23.277344 374.730469 C 22.519531 374.730469 21.765625 374.691406 21.011719 374.617188 C 20.257812 374.542969 19.511719 374.429688 18.765625 374.28125 C 18.023438 374.132812 17.289062 373.949219 16.566406 373.726562 C 15.839844 373.507812 15.128906 373.253906 14.429688 372.960938 C 13.730469 372.671875 13.046875 372.347656 12.378906 371.992188 C 11.710938 371.632812 11.0625 371.242188 10.433594 370.824219 C 9.800781 370.402344 9.195312 369.953125 8.609375 369.46875 C 8.023438 368.988281 7.464844 368.480469 6.925781 367.945312 C 6.390625 367.410156 5.882812 366.851562 5.402344 366.265625 C 4.921875 365.679688 4.472656 365.070312 4.050781 364.441406 C 3.628906 363.8125 3.242188 363.164062 2.882812 362.496094 C 2.527344 361.828125 2.203125 361.144531 1.910156 360.445312 C 1.621094 359.746094 1.367188 359.03125 1.144531 358.308594 C 0.925781 357.582031 0.742188 356.847656 0.59375 356.105469 C 0.445312 355.363281 0.332031 354.617188 0.257812 353.863281 C 0.183594 353.109375 0.144531 352.351562 0.144531 351.59375 L 0.144531 282.863281 L 14.179688 282.863281 L 14.179688 351.59375 C 14.179688 352.191406 14.242188 352.785156 14.355469 353.371094 C 14.472656 353.953125 14.648438 354.523438 14.875 355.074219 C 15.105469 355.625 15.386719 356.152344 15.71875 356.648438 C 16.050781 357.144531 16.425781 357.601562 16.847656 358.027344 C 17.269531 358.449219 17.730469 358.824219 18.226562 359.15625 C 18.722656 359.488281 19.246094 359.769531 19.796875 359.996094 C 20.351562 360.226562 20.917969 360.398438 21.503906 360.515625 C 22.089844 360.632812 22.679688 360.691406 23.277344 360.691406 L 92.011719 360.691406 Z M 92.011719 374.730469 " fill-opacity="1" fill-rule="nonzero"/><g clip-path="url(#6de4e17c19)"><path fill="#facc15" d="M 48.078125 142.066406 L 131.730469 142.066406 C 132.414062 142.066406 133.09375 142 133.769531 141.863281 C 134.441406 141.730469 135.097656 141.53125 135.730469 141.269531 C 136.363281 141.007812 136.96875 140.683594 137.539062 140.300781 C 138.109375 139.921875 138.636719 139.488281 139.121094 139.003906 C 139.609375 138.515625 140.039062 137.988281 140.421875 137.417969 C 140.804688 136.847656 141.125 136.246094 141.390625 135.609375 C 141.652344 134.976562 141.851562 134.320312 141.984375 133.648438 C 142.117188 132.976562 142.183594 132.296875 142.183594 131.609375 L 142.183594 47.957031 C 142.183594 47.269531 142.117188 46.589844 141.984375 45.917969 C 141.851562 45.242188 141.652344 44.589844 141.390625 43.957031 C 141.125 43.320312 140.804688 42.71875 140.421875 42.148438 C 140.039062 41.578125 139.609375 41.050781 139.121094 40.5625 C 138.636719 40.078125 138.109375 39.644531 137.539062 39.261719 C 136.96875 38.882812 136.363281 38.558594 135.730469 38.296875 C 135.097656 38.035156 134.441406 37.835938 133.769531 37.703125 C 133.09375 37.566406 132.414062 37.5 131.730469 37.5 L 48.078125 37.5 C 47.390625 37.5 46.710938 37.566406 46.035156 37.703125 C 45.363281 37.835938 44.710938 38.035156 44.074219 38.296875 C 43.441406 38.558594 42.839844 38.882812 42.269531 39.261719 C 41.695312 39.644531 41.167969 40.078125 40.683594 40.5625 C 40.199219 41.050781 39.765625 41.578125 39.382812 42.148438 C 39 42.71875 38.679688 43.320312 38.417969 43.957031 C 38.152344 44.589844 37.957031 45.242188 37.820312 45.917969 C 37.6875 46.589844 37.621094 47.269531 37.621094 47.957031 L 37.621094 131.609375 C 37.621094 132.296875 37.6875 132.976562 37.820312 133.648438 C 37.957031 134.320312 38.152344 134.976562 38.417969 135.609375 C 38.679688 136.246094 39 136.847656 39.382812 137.417969 C 39.765625 137.988281 40.199219 138.515625 40.683594 139.003906 C 41.167969 139.488281 41.695312 139.921875 42.269531 140.300781 C 42.839844 140.683594 43.441406 141.007812 44.074219 141.269531 C 44.710938 141.53125 45.363281 141.730469 46.035156 141.863281 C 46.710938 142 47.390625 142.066406 48.078125 142.066406 Z M 58.53125 58.414062 L 121.273438 58.414062 L 121.273438 121.152344 L 58.53125 121.152344 Z M 58.53125 58.414062 " fill-opacity="1" fill-rule="nonzero"/></g><path fill="#facc15" d="M 99.523438 85.808594 C 99.289062 85.167969 98.988281 84.566406 98.617188 83.996094 C 98.210938 83.429688 97.769531 82.894531 97.289062 82.390625 C 96.789062 81.910156 96.253906 81.46875 95.6875 81.070312 C 95.105469 80.699219 94.5 80.375 93.871094 80.089844 C 93.234375 79.863281 92.585938 79.679688 91.925781 79.539062 C 91.082031 79.375 90.234375 79.316406 89.378906 79.359375 C 88.523438 79.40625 87.683594 79.550781 86.863281 79.800781 C 86.042969 80.050781 85.265625 80.390625 84.53125 80.832031 C 83.792969 81.269531 83.121094 81.789062 82.507812 82.390625 C 82.03125 82.894531 81.59375 83.429688 81.1875 83.996094 C 80.820312 84.578125 80.496094 85.179688 80.207031 85.808594 C 79.984375 86.445312 79.800781 87.097656 79.65625 87.761719 C 79.511719 88.425781 79.441406 89.101562 79.445312 89.78125 C 79.453125 91.167969 79.722656 92.496094 80.253906 93.777344 C 80.785156 95.054688 81.535156 96.1875 82.507812 97.167969 C 83.242188 97.898438 84.0625 98.507812 84.972656 98.992188 C 85.886719 99.480469 86.847656 99.824219 87.863281 100.027344 C 88.875 100.226562 89.894531 100.277344 90.925781 100.175781 C 91.953125 100.074219 92.945312 99.828125 93.898438 99.429688 C 94.855469 99.035156 95.730469 98.511719 96.53125 97.855469 C 97.328125 97.203125 98.015625 96.445312 98.589844 95.585938 C 99.164062 94.726562 99.605469 93.804688 99.90625 92.816406 C 100.207031 91.828125 100.359375 90.816406 100.359375 89.78125 C 100.363281 89.101562 100.292969 88.425781 100.148438 87.761719 C 100.015625 87.085938 99.808594 86.433594 99.523438 85.808594 Z M 99.523438 85.808594 " fill-opacity="1" fill-rule="nonzero"/><g clip-path="url(#91d3b4a1a5)"><path fill="#facc15" d="M 326.917969 37.5 L 243.265625 37.5 C 242.578125 37.5 241.898438 37.566406 241.226562 37.703125 C 240.550781 37.835938 239.898438 38.035156 239.265625 38.296875 C 238.628906 38.558594 238.027344 38.882812 237.457031 39.261719 C 236.886719 39.644531 236.359375 40.078125 235.871094 40.5625 C 235.386719 41.050781 234.953125 41.578125 234.570312 42.148438 C 234.191406 42.71875 233.867188 43.320312 233.605469 43.957031 C 233.34375 44.589844 233.144531 45.242188 233.011719 45.917969 C 232.875 46.589844 232.808594 47.269531 232.808594 47.957031 L 232.808594 131.609375 C 232.808594 132.296875 232.875 132.976562 233.011719 133.648438 C 233.144531 134.320312 233.34375 134.976562 233.605469 135.609375 C 233.867188 136.246094 234.191406 136.847656 234.570312 137.417969 C 234.953125 137.988281 235.386719 138.515625 235.871094 139.003906 C 236.359375 139.488281 236.886719 139.921875 237.457031 140.300781 C 238.027344 140.683594 238.628906 141.007812 239.265625 141.269531 C 239.898438 141.53125 240.550781 141.730469 241.226562 141.863281 C 241.898438 142 242.578125 142.066406 243.265625 142.066406 L 326.917969 142.066406 C 327.605469 142.066406 328.285156 142 328.957031 141.863281 C 329.632812 141.730469 330.285156 141.53125 330.917969 141.269531 C 331.554688 141.007812 332.15625 140.683594 332.726562 140.300781 C 333.296875 139.921875 333.824219 139.488281 334.3125 139.003906 C 334.796875 138.515625 335.230469 137.988281 335.613281 137.417969 C 335.992188 136.847656 336.316406 136.246094 336.578125 135.609375 C 336.839844 134.976562 337.039062 134.320312 337.171875 133.648438 C 337.308594 132.976562 337.375 132.296875 337.375 131.609375 L 337.375 47.957031 C 337.375 47.269531 337.308594 46.589844 337.171875 45.917969 C 337.039062 45.242188 336.839844 44.589844 336.578125 43.957031 C 336.316406 43.320312 335.992188 42.71875 335.613281 42.148438 C 335.230469 41.578125 334.796875 41.050781 334.3125 40.5625 C 333.824219 40.078125 333.296875 39.644531 332.726562 39.261719 C 332.15625 38.882812 331.554688 38.558594 330.917969 38.296875 C 330.285156 38.035156 329.632812 37.835938 328.957031 37.703125 C 328.285156 37.566406 327.605469 37.5 326.917969 37.5 Z M 316.460938 121.152344 L 253.722656 121.152344 L 253.722656 58.414062 L 316.460938 58.414062 Z M 316.460938 121.152344 " fill-opacity="1" fill-rule="nonzero"/></g><path fill="#facc15" d="M 277.699219 97.167969 C 278.003906 97.46875 278.324219 97.753906 278.664062 98.015625 C 279.003906 98.277344 279.355469 98.515625 279.722656 98.738281 C 280.09375 98.957031 280.472656 99.152344 280.867188 99.324219 C 281.257812 99.496094 281.660156 99.644531 282.070312 99.765625 C 282.480469 99.890625 282.894531 99.988281 283.320312 100.058594 C 283.742188 100.132812 284.167969 100.179688 284.59375 100.199219 C 285.023438 100.21875 285.449219 100.210938 285.878906 100.179688 C 286.304688 100.148438 286.726562 100.089844 287.148438 100.003906 C 287.570312 99.921875 287.980469 99.8125 288.390625 99.675781 C 288.796875 99.542969 289.191406 99.382812 289.578125 99.199219 C 289.96875 99.015625 290.34375 98.8125 290.703125 98.582031 C 291.066406 98.351562 291.414062 98.101562 291.742188 97.832031 C 292.074219 97.558594 292.390625 97.269531 292.683594 96.957031 C 292.980469 96.648438 293.257812 96.320312 293.511719 95.976562 C 293.769531 95.632812 294 95.277344 294.214844 94.902344 C 294.425781 94.53125 294.613281 94.148438 294.777344 93.75 C 295.289062 92.476562 295.542969 91.15625 295.546875 89.78125 C 295.546875 89.398438 295.527344 89.015625 295.484375 88.632812 C 295.441406 88.25 295.378906 87.871094 295.292969 87.496094 C 295.210938 87.121094 295.105469 86.75 294.980469 86.386719 C 294.855469 86.023438 294.707031 85.667969 294.542969 85.320312 C 294.378906 84.972656 294.195312 84.632812 293.996094 84.304688 C 293.792969 83.976562 293.574219 83.664062 293.335938 83.359375 C 293.101562 83.054688 292.847656 82.765625 292.578125 82.492188 C 292.308594 82.214844 292.027344 81.957031 291.730469 81.710938 C 291.433594 81.46875 291.121094 81.242188 290.800781 81.03125 C 290.476562 80.820312 290.144531 80.628906 289.800781 80.457031 C 289.457031 80.28125 289.105469 80.128906 288.746094 79.996094 C 288.382812 79.859375 288.015625 79.746094 287.644531 79.652344 C 287.269531 79.558594 286.894531 79.488281 286.511719 79.433594 C 286.132812 79.382812 285.746094 79.351562 285.363281 79.34375 C 284.980469 79.332031 284.59375 79.34375 284.210938 79.375 C 283.828125 79.410156 283.449219 79.460938 283.070312 79.539062 C 282.40625 79.679688 281.753906 79.863281 281.117188 80.089844 C 280.492188 80.375 279.886719 80.703125 279.304688 81.070312 C 278.726562 81.457031 278.191406 81.894531 277.699219 82.390625 C 277.222656 82.894531 276.78125 83.429688 276.378906 83.996094 C 276.011719 84.578125 275.683594 85.179688 275.398438 85.808594 C 275.171875 86.445312 274.988281 87.097656 274.847656 87.761719 C 274.699219 88.425781 274.628906 89.101562 274.636719 89.78125 C 274.640625 91.152344 274.894531 92.476562 275.398438 93.75 C 275.9375 95.042969 276.703125 96.183594 277.699219 97.167969 Z M 277.699219 97.167969 " fill-opacity="1" fill-rule="nonzero"/><g clip-path="url(#3f02bdb12f)"><path fill="#facc15" d="M 326.917969 232.6875 L 243.265625 232.6875 C 242.578125 232.6875 241.898438 232.757812 241.226562 232.890625 C 240.550781 233.023438 239.898438 233.222656 239.265625 233.484375 C 238.628906 233.75 238.027344 234.070312 237.457031 234.453125 C 236.886719 234.832031 236.359375 235.265625 235.871094 235.753906 C 235.386719 236.238281 234.953125 236.765625 234.570312 237.335938 C 234.191406 237.90625 233.867188 238.511719 233.605469 239.144531 C 233.34375 239.777344 233.144531 240.433594 233.011719 241.105469 C 232.875 241.777344 232.808594 242.460938 232.808594 243.144531 L 232.808594 326.796875 C 232.808594 327.484375 232.875 328.164062 233.011719 328.839844 C 233.144531 329.511719 233.34375 330.164062 233.605469 330.800781 C 233.867188 331.433594 234.191406 332.035156 234.570312 332.605469 C 234.953125 333.175781 235.386719 333.707031 235.871094 334.191406 C 236.359375 334.675781 236.886719 335.109375 237.457031 335.492188 C 238.027344 335.875 238.628906 336.195312 239.265625 336.457031 C 239.898438 336.722656 240.550781 336.917969 241.226562 337.054688 C 241.898438 337.1875 242.578125 337.253906 243.265625 337.253906 L 326.917969 337.253906 C 327.605469 337.253906 328.285156 337.1875 328.957031 337.054688 C 329.632812 336.917969 330.285156 336.722656 330.917969 336.457031 C 331.554688 336.195312 332.15625 335.875 332.726562 335.492188 C 333.296875 335.109375 333.824219 334.675781 334.3125 334.191406 C 334.796875 333.707031 335.230469 333.175781 335.613281 332.605469 C 335.992188 332.035156 336.316406 331.433594 336.578125 330.800781 C 336.839844 330.164062 337.039062 329.511719 337.171875 328.839844 C 337.308594 328.164062 337.375 327.484375 337.375 326.796875 L 337.375 243.144531 C 337.375 242.460938 337.308594 241.777344 337.171875 241.105469 C 337.039062 240.433594 336.839844 239.777344 336.578125 239.144531 C 336.316406 238.511719 335.992188 237.90625 335.613281 237.335938 C 335.230469 236.765625 334.796875 236.238281 334.3125 235.753906 C 333.824219 235.265625 333.296875 234.832031 332.726562 234.453125 C 332.15625 234.070312 331.554688 233.75 330.917969 233.484375 C 330.285156 233.222656 329.632812 233.023438 328.957031 232.890625 C 328.285156 232.757812 327.605469 232.6875 326.917969 232.6875 Z M 316.460938 316.339844 L 253.722656 316.339844 L 253.722656 253.601562 L 316.460938 253.601562 Z M 316.460938 316.339844 " fill-opacity="1" fill-rule="nonzero"/></g><path fill="#facc15" d="M 277.699219 292.359375 C 278.683594 293.351562 279.824219 294.117188 281.117188 294.660156 C 282.394531 295.167969 283.71875 295.425781 285.089844 295.429688 C 286.128906 295.421875 287.140625 295.265625 288.132812 294.964844 C 289.125 294.660156 290.050781 294.21875 290.910156 293.640625 C 291.773438 293.066406 292.53125 292.375 293.191406 291.574219 C 293.847656 290.773438 294.378906 289.898438 294.777344 288.941406 C 295.289062 287.667969 295.542969 286.34375 295.546875 284.972656 C 295.546875 284.585938 295.527344 284.203125 295.484375 283.820312 C 295.441406 283.4375 295.378906 283.058594 295.292969 282.683594 C 295.210938 282.308594 295.105469 281.9375 294.980469 281.574219 C 294.855469 281.210938 294.707031 280.855469 294.542969 280.507812 C 294.378906 280.160156 294.195312 279.824219 293.996094 279.496094 C 293.792969 279.167969 293.574219 278.851562 293.335938 278.546875 C 293.101562 278.246094 292.847656 277.957031 292.578125 277.679688 C 292.308594 277.40625 292.027344 277.144531 291.730469 276.902344 C 291.433594 276.65625 291.121094 276.429688 290.800781 276.21875 C 290.476562 276.011719 290.144531 275.820312 289.800781 275.644531 C 289.457031 275.472656 289.105469 275.320312 288.746094 275.183594 C 288.382812 275.050781 288.015625 274.9375 287.644531 274.84375 C 287.269531 274.75 286.894531 274.675781 286.511719 274.625 C 286.128906 274.570312 285.746094 274.539062 285.363281 274.53125 C 284.980469 274.519531 284.59375 274.53125 284.210938 274.566406 C 283.828125 274.597656 283.449219 274.652344 283.070312 274.726562 C 282.40625 274.867188 281.753906 275.050781 281.117188 275.277344 C 280.492188 275.5625 279.886719 275.890625 279.304688 276.257812 C 278.726562 276.644531 278.191406 277.085938 277.699219 277.578125 C 277.222656 278.082031 276.78125 278.621094 276.378906 279.183594 C 276.011719 279.765625 275.683594 280.371094 275.398438 280.996094 C 275.171875 281.636719 274.988281 282.289062 274.847656 282.949219 C 274.699219 283.617188 274.628906 284.289062 274.636719 284.972656 C 274.640625 286.34375 274.894531 287.664062 275.398438 288.941406 C 275.9375 290.234375 276.703125 291.371094 277.699219 292.359375 Z M 277.699219 292.359375 " fill-opacity="1" fill-rule="nonzero"/><g clip-path="url(#7e1062ff7f)"><path fill="#facc15" d="M 187.496094 197.832031 L 264.179688 197.832031 C 264.867188 197.832031 265.546875 197.765625 266.21875 197.632812 C 266.890625 197.5 267.546875 197.300781 268.179688 197.039062 C 268.816406 196.773438 269.417969 196.453125 269.988281 196.070312 C 270.558594 195.691406 271.085938 195.257812 271.574219 194.769531 C 272.058594 194.285156 272.492188 193.757812 272.871094 193.1875 C 273.253906 192.617188 273.578125 192.011719 273.839844 191.378906 C 274.101562 190.746094 274.300781 190.089844 274.433594 189.417969 C 274.566406 188.742188 274.636719 188.0625 274.636719 187.378906 C 274.636719 186.691406 274.566406 186.011719 274.433594 185.335938 C 274.300781 184.664062 274.101562 184.011719 273.839844 183.375 C 273.578125 182.742188 273.253906 182.140625 272.871094 181.566406 C 272.492188 180.996094 272.058594 180.46875 271.574219 179.984375 C 271.085938 179.496094 270.558594 179.066406 269.988281 178.683594 C 269.417969 178.300781 268.816406 177.980469 268.179688 177.714844 C 267.546875 177.453125 266.890625 177.253906 266.21875 177.121094 C 265.546875 176.988281 264.867188 176.921875 264.179688 176.921875 L 197.953125 176.921875 L 197.953125 47.957031 C 197.953125 47.269531 197.886719 46.589844 197.753906 45.917969 C 197.617188 45.242188 197.421875 44.589844 197.15625 43.953125 C 196.894531 43.320312 196.574219 42.71875 196.191406 42.148438 C 195.808594 41.578125 195.375 41.046875 194.890625 40.5625 C 194.40625 40.078125 193.878906 39.644531 193.304688 39.261719 C 192.734375 38.878906 192.132812 38.558594 191.5 38.296875 C 190.863281 38.035156 190.210938 37.835938 189.539062 37.699219 C 188.863281 37.566406 188.183594 37.5 187.496094 37.5 C 186.8125 37.5 186.128906 37.566406 185.457031 37.699219 C 184.785156 37.835938 184.128906 38.035156 183.496094 38.296875 C 182.863281 38.558594 182.257812 38.878906 181.6875 39.261719 C 181.117188 39.644531 180.589844 40.078125 180.101562 40.5625 C 179.617188 41.046875 179.183594 41.578125 178.804688 42.148438 C 178.421875 42.71875 178.097656 43.320312 177.835938 43.953125 C 177.574219 44.589844 177.375 45.242188 177.242188 45.917969 C 177.109375 46.589844 177.039062 47.269531 177.039062 47.957031 L 177.039062 187.378906 C 177.039062 188.0625 177.109375 188.742188 177.242188 189.417969 C 177.375 190.089844 177.574219 190.746094 177.835938 191.378906 C 178.101562 192.011719 178.421875 192.617188 178.804688 193.1875 C 179.183594 193.757812 179.617188 194.285156 180.105469 194.769531 C 180.589844 195.257812 181.117188 195.6875 181.6875 196.070312 C 182.257812 196.453125 182.863281 196.773438 183.496094 197.039062 C 184.128906 197.300781 184.785156 197.5 185.457031 197.632812 C 186.128906 197.765625 186.8125 197.832031 187.496094 197.832031 Z M 187.496094 197.832031 " fill-opacity="1" fill-rule="nonzero"/></g><g clip-path="url(#566d92c0cf)"><path fill="#facc15" d="M 326.917969 176.921875 L 306.003906 176.921875 C 305.316406 176.921875 304.636719 176.988281 303.964844 177.121094 C 303.292969 177.253906 302.636719 177.453125 302.003906 177.714844 C 301.367188 177.980469 300.765625 178.300781 300.195312 178.683594 C 299.625 179.066406 299.097656 179.496094 298.609375 179.984375 C 298.125 180.46875 297.691406 180.996094 297.3125 181.566406 C 296.929688 182.140625 296.605469 182.742188 296.34375 183.375 C 296.082031 184.011719 295.882812 184.664062 295.75 185.335938 C 295.617188 186.011719 295.546875 186.691406 295.546875 187.378906 C 295.546875 188.0625 295.617188 188.742188 295.75 189.417969 C 295.882812 190.089844 296.082031 190.746094 296.34375 191.378906 C 296.605469 192.011719 296.929688 192.617188 297.3125 193.1875 C 297.691406 193.757812 298.125 194.285156 298.609375 194.769531 C 299.097656 195.257812 299.625 195.691406 300.195312 196.070312 C 300.765625 196.453125 301.367188 196.773438 302.003906 197.039062 C 302.636719 197.300781 303.292969 197.5 303.964844 197.632812 C 304.636719 197.765625 305.316406 197.832031 306.003906 197.832031 L 326.917969 197.832031 C 327.605469 197.832031 328.285156 197.765625 328.957031 197.632812 C 329.632812 197.5 330.285156 197.300781 330.917969 197.039062 C 331.554688 196.773438 332.15625 196.453125 332.726562 196.070312 C 333.296875 195.691406 333.828125 195.257812 334.3125 194.769531 C 334.796875 194.285156 335.230469 193.757812 335.613281 193.1875 C 335.992188 192.617188 336.316406 192.011719 336.578125 191.378906 C 336.839844 190.746094 337.039062 190.089844 337.171875 189.417969 C 337.308594 188.742188 337.375 188.0625 337.375 187.378906 C 337.375 186.691406 337.308594 186.011719 337.171875 185.335938 C 337.039062 184.664062 336.839844 184.011719 336.578125 183.375 C 336.316406 182.742188 335.992188 182.140625 335.613281 181.566406 C 335.230469 180.996094 334.796875 180.46875 334.3125 179.984375 C 333.828125 179.496094 333.296875 179.066406 332.726562 178.683594 C 332.15625 178.300781 331.554688 177.980469 330.917969 177.714844 C 330.285156 177.453125 329.632812 177.253906 328.957031 177.121094 C 328.285156 176.988281 327.605469 176.921875 326.917969 176.921875 Z M 326.917969 176.921875 " fill-opacity="1" fill-rule="nonzero"/></g><path fill="#facc15" d="M 187.496094 218.746094 L 138.699219 218.746094 C 138.011719 218.746094 137.332031 218.8125 136.660156 218.949219 C 135.988281 219.082031 135.332031 219.28125 134.699219 219.542969 C 134.0625 219.804688 133.460938 220.128906 132.890625 220.507812 C 132.320312 220.890625 131.792969 221.324219 131.304688 221.808594 C 130.820312 222.296875 130.386719 222.824219 130.003906 223.394531 C 129.625 223.964844 129.300781 224.566406 129.039062 225.203125 C 128.777344 225.835938 128.578125 226.488281 128.445312 227.164062 C 128.308594 227.835938 128.242188 228.515625 128.242188 229.203125 C 128.242188 229.890625 128.308594 230.570312 128.445312 231.242188 C 128.578125 231.917969 128.777344 232.570312 129.039062 233.207031 C 129.300781 233.839844 129.625 234.441406 130.003906 235.011719 C 130.386719 235.582031 130.820312 236.113281 131.304688 236.597656 C 131.792969 237.082031 132.320312 237.515625 132.890625 237.898438 C 133.460938 238.28125 134.0625 238.601562 134.699219 238.863281 C 135.332031 239.125 135.988281 239.324219 136.660156 239.460938 C 137.332031 239.59375 138.011719 239.660156 138.699219 239.660156 L 177.039062 239.660156 L 177.039062 286.421875 C 177.039062 287.109375 177.109375 287.789062 177.242188 288.460938 C 177.375 289.136719 177.574219 289.789062 177.835938 290.421875 C 178.097656 291.058594 178.421875 291.660156 178.804688 292.230469 C 179.183594 292.800781 179.617188 293.332031 180.101562 293.816406 C 180.589844 294.300781 181.117188 294.734375 181.6875 295.117188 C 182.257812 295.496094 182.863281 295.820312 183.496094 296.082031 C 184.128906 296.34375 184.785156 296.542969 185.457031 296.675781 C 186.128906 296.8125 186.8125 296.878906 187.496094 296.878906 C 188.183594 296.878906 188.863281 296.8125 189.539062 296.675781 C 190.210938 296.542969 190.863281 296.34375 191.5 296.082031 C 192.132812 295.820312 192.734375 295.496094 193.304688 295.117188 C 193.878906 294.734375 194.40625 294.300781 194.890625 293.816406 C 195.375 293.332031 195.808594 292.800781 196.191406 292.230469 C 196.574219 291.660156 196.894531 291.058594 197.15625 290.421875 C 197.421875 289.789062 197.617188 289.136719 197.753906 288.460938 C 197.886719 287.789062 197.953125 287.109375 197.953125 286.421875 L 197.953125 229.203125 C 197.953125 228.515625 197.886719 227.835938 197.753906 227.164062 C 197.617188 226.492188 197.421875 225.835938 197.15625 225.203125 C 196.894531 224.566406 196.570312 223.964844 196.191406 223.394531 C 195.808594 222.824219 195.375 222.296875 194.890625 221.808594 C 194.40625 221.324219 193.875 220.890625 193.304688 220.511719 C 192.734375 220.128906 192.132812 219.804688 191.5 219.542969 C 190.863281 219.28125 190.210938 219.082031 189.535156 218.949219 C 188.863281 218.8125 188.183594 218.746094 187.496094 218.746094 Z M 187.496094 218.746094 " fill-opacity="1" fill-rule="nonzero"/><g clip-path="url(#61085cfad0)"><path fill="#facc15" d="M 180.105469 319.40625 C 179.128906 320.390625 178.378906 321.519531 177.847656 322.800781 C 177.316406 324.082031 177.046875 325.414062 177.039062 326.796875 C 177.046875 328.167969 177.300781 329.492188 177.804688 330.765625 C 178.347656 332.054688 179.113281 333.195312 180.105469 334.183594 C 181.09375 335.175781 182.234375 335.941406 183.523438 336.484375 C 184.796875 337 186.121094 337.253906 187.492188 337.253906 C 188.867188 337.253906 190.191406 337 191.464844 336.484375 C 192.421875 336.085938 193.300781 335.554688 194.101562 334.898438 C 194.902344 334.238281 195.589844 333.480469 196.167969 332.617188 C 196.742188 331.757812 197.183594 330.828125 197.488281 329.839844 C 197.792969 328.847656 197.949219 327.835938 197.953125 326.796875 C 197.945312 325.414062 197.675781 324.078125 197.144531 322.800781 C 196.613281 321.519531 195.859375 320.386719 194.882812 319.40625 C 190.984375 315.503906 183.945312 315.503906 180.105469 319.40625 Z M 180.105469 319.40625 " fill-opacity="1" fill-rule="nonzero"/></g><g clip-path="url(#c8c84951ba)"><path fill="#facc15" d="M 48.078125 197.832031 L 131.730469 197.832031 C 132.414062 197.832031 133.09375 197.765625 133.769531 197.632812 C 134.441406 197.5 135.097656 197.300781 135.730469 197.039062 C 136.363281 196.773438 136.96875 196.453125 137.539062 196.070312 C 138.109375 195.6875 138.636719 195.257812 139.121094 194.769531 C 139.609375 194.285156 140.039062 193.757812 140.421875 193.1875 C 140.804688 192.617188 141.125 192.011719 141.390625 191.378906 C 141.652344 190.746094 141.851562 190.089844 141.984375 189.417969 C 142.117188 188.742188 142.183594 188.0625 142.183594 187.378906 L 142.183594 173.433594 C 142.183594 172.75 142.117188 172.070312 141.984375 171.394531 C 141.847656 170.722656 141.652344 170.070312 141.386719 169.4375 C 141.125 168.800781 140.800781 168.199219 140.421875 167.628906 C 140.039062 167.058594 139.605469 166.53125 139.121094 166.046875 C 138.636719 165.5625 138.105469 165.128906 137.535156 164.746094 C 136.964844 164.367188 136.363281 164.042969 135.730469 163.78125 C 135.09375 163.519531 134.441406 163.320312 133.769531 163.1875 C 133.09375 163.054688 132.414062 162.984375 131.730469 162.984375 C 131.042969 162.984375 130.363281 163.054688 129.691406 163.1875 C 129.015625 163.320312 128.363281 163.519531 127.730469 163.78125 C 127.09375 164.042969 126.492188 164.367188 125.921875 164.746094 C 125.351562 165.128906 124.824219 165.5625 124.335938 166.046875 C 123.851562 166.53125 123.417969 167.058594 123.039062 167.628906 C 122.65625 168.199219 122.332031 168.800781 122.070312 169.4375 C 121.808594 170.070312 121.609375 170.722656 121.472656 171.394531 C 121.339844 172.070312 121.273438 172.75 121.273438 173.433594 L 121.273438 176.921875 L 48.078125 176.921875 C 47.390625 176.921875 46.710938 176.988281 46.035156 177.121094 C 45.363281 177.253906 44.710938 177.453125 44.074219 177.714844 C 43.441406 177.980469 42.839844 178.300781 42.265625 178.683594 C 41.695312 179.066406 41.167969 179.496094 40.683594 179.984375 C 40.195312 180.46875 39.761719 180.996094 39.382812 181.566406 C 39 182.140625 38.679688 182.742188 38.414062 183.375 C 38.152344 184.011719 37.953125 184.664062 37.820312 185.335938 C 37.6875 186.011719 37.621094 186.691406 37.621094 187.378906 C 37.621094 188.0625 37.6875 188.742188 37.820312 189.417969 C 37.953125 190.089844 38.152344 190.746094 38.414062 191.378906 C 38.679688 192.011719 39 192.617188 39.382812 193.1875 C 39.761719 193.757812 40.195312 194.285156 40.683594 194.769531 C 41.167969 195.257812 41.695312 195.691406 42.265625 196.070312 C 42.839844 196.453125 43.441406 196.773438 44.074219 197.039062 C 44.710938 197.300781 45.363281 197.5 46.035156 197.632812 C 46.710938 197.765625 47.390625 197.832031 48.078125 197.832031 Z M 48.078125 197.832031 " fill-opacity="1" fill-rule="nonzero"/></g><g clip-path="url(#c2adda3b7d)"><path fill="#facc15" d="M 145.671875 316.339844 L 114.300781 316.339844 L 114.300781 295.429688 L 138.699219 295.429688 C 139.386719 295.429688 140.066406 295.363281 140.738281 295.226562 C 141.414062 295.09375 142.066406 294.894531 142.703125 294.632812 C 143.335938 294.371094 143.9375 294.046875 144.507812 293.667969 C 145.082031 293.285156 145.609375 292.851562 146.09375 292.367188 C 146.578125 291.878906 147.011719 291.351562 147.394531 290.78125 C 147.777344 290.210938 148.097656 289.609375 148.359375 288.972656 C 148.625 288.339844 148.820312 287.683594 148.957031 287.011719 C 149.089844 286.339844 149.15625 285.660156 149.15625 284.972656 C 149.15625 284.285156 149.089844 283.605469 148.957031 282.933594 C 148.820312 282.257812 148.625 281.605469 148.359375 280.96875 C 148.097656 280.335938 147.777344 279.734375 147.394531 279.164062 C 147.011719 278.589844 146.578125 278.0625 146.09375 277.578125 C 145.609375 277.09375 145.082031 276.660156 144.507812 276.277344 C 143.9375 275.894531 143.335938 275.574219 142.703125 275.3125 C 142.066406 275.046875 141.414062 274.851562 140.738281 274.714844 C 140.066406 274.582031 139.386719 274.515625 138.699219 274.515625 L 114.300781 274.515625 L 114.300781 271.03125 C 114.300781 270.34375 114.234375 269.664062 114.101562 268.988281 C 113.96875 268.316406 113.769531 267.660156 113.507812 267.027344 C 113.246094 266.390625 112.921875 265.789062 112.542969 265.21875 C 112.160156 264.644531 111.726562 264.117188 111.242188 263.632812 C 110.753906 263.144531 110.226562 262.710938 109.65625 262.328125 C 109.085938 261.949219 108.484375 261.625 107.847656 261.363281 C 107.214844 261.101562 106.558594 260.902344 105.886719 260.765625 C 105.210938 260.632812 104.53125 260.566406 103.84375 260.566406 C 103.15625 260.566406 102.476562 260.632812 101.804688 260.765625 C 101.128906 260.902344 100.476562 261.101562 99.839844 261.363281 C 99.207031 261.625 98.605469 261.949219 98.03125 262.328125 C 97.460938 262.710938 96.933594 263.144531 96.449219 263.632812 C 95.960938 264.117188 95.53125 264.644531 95.148438 265.21875 C 94.765625 265.789062 94.445312 266.390625 94.183594 267.027344 C 93.917969 267.660156 93.722656 268.316406 93.589844 268.988281 C 93.453125 269.664062 93.386719 270.34375 93.386719 271.03125 L 93.386719 316.339844 L 48.078125 316.339844 C 47.390625 316.339844 46.710938 316.410156 46.035156 316.542969 C 45.363281 316.675781 44.710938 316.875 44.074219 317.136719 C 43.441406 317.398438 42.839844 317.722656 42.265625 318.105469 C 41.695312 318.484375 41.167969 318.917969 40.683594 319.402344 C 40.195312 319.890625 39.761719 320.417969 39.382812 320.988281 C 39 321.558594 38.679688 322.164062 38.414062 322.796875 C 38.152344 323.429688 37.953125 324.085938 37.820312 324.757812 C 37.6875 325.429688 37.621094 326.113281 37.621094 326.796875 C 37.621094 327.484375 37.6875 328.164062 37.820312 328.839844 C 37.953125 329.511719 38.152344 330.164062 38.414062 330.800781 C 38.679688 331.433594 39 332.035156 39.382812 332.609375 C 39.761719 333.179688 40.195312 333.707031 40.683594 334.191406 C 41.167969 334.675781 41.695312 335.109375 42.265625 335.492188 C 42.839844 335.875 43.441406 336.195312 44.074219 336.457031 C 44.710938 336.722656 45.363281 336.917969 46.035156 337.054688 C 46.710938 337.1875 47.390625 337.253906 48.078125 337.253906 L 145.671875 337.253906 C 146.359375 337.253906 147.039062 337.1875 147.710938 337.054688 C 148.382812 336.917969 149.039062 336.722656 149.671875 336.457031 C 150.308594 336.195312 150.910156 335.875 151.480469 335.492188 C 152.050781 335.109375 152.578125 334.675781 153.066406 334.191406 C 153.550781 333.707031 153.984375 333.179688 154.367188 332.609375 C 154.746094 332.035156 155.070312 331.433594 155.332031 330.800781 C 155.59375 330.164062 155.792969 329.511719 155.925781 328.839844 C 156.0625 328.164062 156.128906 327.484375 156.128906 326.796875 C 156.128906 326.113281 156.0625 325.429688 155.925781 324.757812 C 155.792969 324.085938 155.59375 323.429688 155.332031 322.796875 C 155.070312 322.164062 154.746094 321.558594 154.367188 320.988281 C 153.984375 320.417969 153.550781 319.890625 153.066406 319.402344 C 152.578125 318.917969 152.050781 318.484375 151.480469 318.105469 C 150.910156 317.722656 150.308594 317.398438 149.671875 317.136719 C 149.039062 316.875 148.382812 316.675781 147.710938 316.542969 C 147.039062 316.410156 146.359375 316.339844 145.671875 316.339844 Z M 145.671875 316.339844 " fill-opacity="1" fill-rule="nonzero"/></g><g clip-path="url(#6c2a4570c4)"><path fill="#facc15" d="M 48.078125 295.429688 C 48.761719 295.429688 49.441406 295.359375 50.117188 295.226562 C 50.789062 295.09375 51.441406 294.894531 52.078125 294.632812 C 52.710938 294.367188 53.3125 294.046875 53.886719 293.664062 C 54.457031 293.285156 54.984375 292.851562 55.46875 292.363281 C 55.953125 291.878906 56.386719 291.351562 56.769531 290.78125 C 57.152344 290.210938 57.472656 289.605469 57.738281 288.972656 C 58 288.339844 58.199219 287.683594 58.332031 287.011719 C 58.464844 286.339844 58.53125 285.660156 58.53125 284.972656 L 58.53125 239.660156 L 82.933594 239.660156 C 83.617188 239.660156 84.296875 239.59375 84.972656 239.460938 C 85.644531 239.324219 86.300781 239.125 86.933594 238.863281 C 87.566406 238.601562 88.171875 238.28125 88.742188 237.898438 C 89.3125 237.515625 89.839844 237.082031 90.324219 236.597656 C 90.8125 236.113281 91.246094 235.582031 91.625 235.011719 C 92.007812 234.441406 92.328125 233.839844 92.59375 233.207031 C 92.855469 232.570312 93.054688 231.917969 93.1875 231.242188 C 93.320312 230.570312 93.386719 229.890625 93.386719 229.203125 C 93.386719 228.515625 93.320312 227.835938 93.1875 227.164062 C 93.054688 226.492188 92.855469 225.835938 92.59375 225.203125 C 92.328125 224.566406 92.007812 223.964844 91.625 223.394531 C 91.246094 222.824219 90.8125 222.296875 90.324219 221.808594 C 89.839844 221.324219 89.3125 220.890625 88.742188 220.507812 C 88.171875 220.128906 87.566406 219.804688 86.933594 219.542969 C 86.300781 219.28125 85.644531 219.082031 84.972656 218.949219 C 84.296875 218.8125 83.617188 218.746094 82.933594 218.746094 L 48.078125 218.746094 C 47.390625 218.746094 46.710938 218.8125 46.035156 218.949219 C 45.363281 219.082031 44.710938 219.28125 44.074219 219.542969 C 43.441406 219.804688 42.839844 220.128906 42.269531 220.511719 C 41.695312 220.890625 41.167969 221.324219 40.683594 221.808594 C 40.199219 222.296875 39.765625 222.824219 39.382812 223.394531 C 39 223.964844 38.679688 224.566406 38.417969 225.203125 C 38.152344 225.835938 37.957031 226.492188 37.820312 227.164062 C 37.6875 227.835938 37.621094 228.515625 37.621094 229.203125 L 37.621094 284.972656 C 37.621094 285.660156 37.6875 286.339844 37.820312 287.011719 C 37.957031 287.683594 38.152344 288.339844 38.417969 288.972656 C 38.679688 289.605469 39 290.210938 39.382812 290.78125 C 39.765625 291.351562 40.199219 291.878906 40.683594 292.363281 C 41.167969 292.851562 41.695312 293.285156 42.269531 293.664062 C 42.839844 294.046875 43.441406 294.367188 44.074219 294.632812 C 44.710938 294.894531 45.363281 295.09375 46.035156 295.226562 C 46.710938 295.359375 47.390625 295.429688 48.078125 295.429688 Z M 48.078125 295.429688 " fill-opacity="1" fill-rule="nonzero"/></g></svg>